<?xml version="1.0" standalone="no"?>
<!DOCTYPE svg PUBLIC "-//W3C//DTD SVG 20010904//EN"
 "http://www.w3.org/TR/2001/REC-SVG-20010904/DTD/svg10.dtd">
<svg version="1.0" xmlns="http://www.w3.org/2000/svg"
 width="7000.000000pt" height="2769.000000pt" viewBox="0 0 7000.000000 2769.000000"
 preserveAspectRatio="xMidYMid meet">

<g transform="translate(0.000000,2769.000000) scale(0.100000,-0.100000)"
fill="#000000" stroke="none">
<path d="M8037 20444 c-1 -1 -31 -4 -67 -7 -267 -25 -503 -164 -695 -412 -74
-95 -107 -147 -151 -235 -64 -130 -115 -311 -116 -410 0 -24 -2 -48 -5 -53 -2
-4 -21 5 -41 21 -177 138 -401 136 -598 -4 -117 -82 -189 -190 -232 -342 -18
-62 -21 -98 -19 -225 l2 -152 -75 2 c-256 6 -445 -108 -496 -299 -18 -68 -18
-259 1 -360 14 -81 63 -237 93 -298 19 -38 26 -39 92 -15 58 22 193 32 223 17
12 -7 85 -35 162 -63 128 -47 149 -52 245 -56 215 -10 440 60 657 203 184 122
294 311 310 532 6 82 6 82 34 82 16 0 49 -7 74 -16 64 -21 97 -16 109 18 8 21
6 32 -8 47 -20 22 -116 51 -168 51 -40 0 -48 11 -48 65 0 25 9 41 43 71 166
153 410 208 608 139 131 -46 268 -175 300 -282 6 -24 14 -43 16 -43 19 0 162
82 221 127 188 143 324 368 377 622 25 121 26 135 32 311 4 154 2 188 -17 280
-51 246 -166 427 -346 543 -131 85 -248 122 -417 135 -54 4 -99 7 -100 6z"/>
<path d="M22800 20297 c-3 -2 -27 -7 -55 -10 -236 -27 -440 -188 -569 -451
-59 -122 -125 -334 -140 -448 l-5 -47 65 -46 c302 -216 492 -582 549 -1061 7
-55 -8 -84 -44 -84 -30 0 -41 23 -52 111 -52 424 -251 782 -543 979 -44 30
-48 36 -44 66 4 32 0 37 -82 97 -102 77 -213 139 -341 194 -81 35 -244 91
-286 99 -6 1 -51 11 -100 23 -176 41 -321 53 -563 48 -134 -3 -259 -11 -310
-20 -415 -74 -788 -265 -1003 -512 -149 -172 -234 -347 -262 -539 -23 -165 28
-356 200 -743 10 -24 21 -43 24 -43 4 0 20 48 36 106 17 58 33 110 36 115 4 6
81 0 203 -17 108 -15 199 -25 201 -22 3 2 27 85 54 184 63 230 100 325 160
410 54 77 119 143 107 109 -19 -52 -46 -167 -55 -235 -16 -120 -44 -450 -38
-456 3 -3 324 -107 714 -231 389 -124 713 -228 720 -232 8 -4 -12 -57 -67
-174 -44 -93 -74 -166 -67 -164 7 3 49 22 94 42 233 102 418 81 557 -64 101
-107 159 -263 159 -431 0 -115 -21 -207 -73 -315 -125 -263 -356 -407 -625
-392 -49 3 -98 8 -107 12 -16 6 -17 1 -13 -51 2 -33 7 -227 10 -432 5 -392 7
-374 -40 -579 -3 -13 -11 -23 -17 -23 -6 0 -43 -22 -82 -49 -132 -91 -309
-169 -481 -214 -199 -52 -272 -60 -545 -61 -140 -1 -261 -5 -267 -9 -17 -11
-16 -52 1 -66 20 -17 258 -33 386 -26 132 7 289 28 387 50 172 39 388 127 517
209 32 20 60 36 62 34 1 -2 -8 -51 -21 -108 -61 -272 -304 -1385 -395 -1810
-56 -261 -104 -477 -105 -479 -2 -2 -79 61 -170 139 -100 85 -172 140 -180
136 -11 -4 -887 -658 -1290 -963 -50 -37 -100 -75 -112 -83 -12 -8 -74 -55
-137 -103 l-116 -89 -84 47 c-46 26 -96 58 -111 71 -16 13 -31 24 -36 24 -10
0 -167 156 -201 200 -36 46 -156 270 -208 390 -118 268 -204 561 -240 815 -6
44 -13 94 -16 110 -3 23 -34 62 -115 145 -109 112 -194 206 -254 284 -16 22
-39 51 -51 65 -11 14 -40 54 -63 89 -23 34 -44 62 -46 62 -16 0 -249 -213
-405 -369 -391 -393 -789 -879 -1155 -1410 l-79 -114 201 7 c189 7 202 6 207
-11 3 -10 24 -115 46 -233 23 -118 44 -225 47 -237 4 -20 12 -22 71 -25 l67
-3 241 -1477 c133 -812 245 -1493 248 -1512 l7 -36 929 0 928 0 6 73 c3 39 15
209 26 377 23 333 66 785 105 1089 23 178 29 212 38 200 2 -2 43 -62 92 -133
274 -401 596 -793 937 -1141 149 -153 175 -184 172 -205 -3 -14 -8 -78 -12
-142 l-7 -118 1045 0 1045 0 0 83 c1 99 21 164 75 240 46 64 112 116 190 149
l55 23 903 3 904 3 -26 20 c-15 12 -33 33 -40 48 -8 15 -83 469 -166 1010
-152 982 -152 984 -135 1027 10 26 31 55 53 72 l35 27 244 3 c134 2 243 5 243
8 0 13 -123 495 -135 529 -8 22 -28 87 -45 145 -18 58 -43 139 -56 180 -23 72
-162 549 -169 580 -2 8 -17 69 -34 135 -18 66 -34 129 -36 140 -3 11 -21 88
-40 170 -55 226 -76 359 -78 475 -2 112 9 150 42 150 10 0 25 -8 33 -17 41
-47 122 -240 184 -442 71 -228 186 -618 214 -721 15 -58 36 -132 45 -165 10
-33 18 -61 17 -62 0 -2 4 -17 9 -35 16 -52 69 -250 75 -278 3 -14 18 -74 34
-135 31 -117 108 -417 115 -450 3 -11 15 -62 27 -112 l22 -93 293 0 293 0 0
198 c-1 698 -114 1483 -290 2007 l-40 118 60 73 c139 173 238 408 270 639 14
108 11 363 -6 455 -15 81 -62 256 -75 280 -5 8 -20 44 -35 80 -79 195 -162
327 -266 426 -89 84 -139 113 -355 205 -268 113 -423 208 -537 330 -121 128
-142 196 -136 439 19 761 -12 1017 -158 1286 -162 298 -509 500 -850 495 -47
-1 -71 3 -67 9 3 5 11 10 17 10 22 0 207 130 292 206 234 207 457 542 561 844
54 157 73 272 70 415 -4 137 -6 153 -42 241 -75 188 -241 308 -488 354 -66 12
-277 25 -285 17z"/>
<path d="M64100 19829 c-213 -9 -365 -38 -585 -110 -481 -160 -990 -516 -1107
-774 -18 -41 -22 -69 -22 -150 -1 -138 15 -233 76 -454 27 -100 29 -116 17
-135 -8 -12 -14 -48 -14 -88 0 -59 1 -64 12 -43 7 13 23 27 35 31 13 4 38 20
56 35 39 35 95 38 179 12 67 -21 88 -12 88 38 0 30 -5 37 -40 54 -32 16 -60
20 -141 20 l-100 0 42 105 42 105 99 12 c131 16 288 50 341 74 99 43 187 130
259 256 l30 53 21 -110 c26 -129 76 -291 138 -443 24 -59 44 -110 44 -112 0
-2 -15 1 -32 6 -46 13 -196 10 -238 -4 -31 -11 -35 -17 -38 -50 -3 -31 0 -39
20 -46 13 -5 38 -4 58 2 52 14 177 3 242 -22 51 -20 62 -30 119 -109 145 -199
430 -453 674 -601 l51 -31 40 19 c96 46 185 66 299 65 90 0 120 -4 168 -23
164 -65 286 -279 287 -504 0 -207 -110 -439 -273 -575 -64 -53 -168 -107 -244
-127 -72 -19 -239 -19 -318 -1 -33 8 -60 14 -61 13 -4 -7 -80 -984 -77 -989 2
-4 19 2 38 13 42 25 72 18 81 -18 9 -33 -14 -52 -140 -119 -298 -158 -546
-239 -816 -264 -133 -13 -255 -6 -393 21 -210 42 -295 97 -222 145 l25 16 0
193 c0 213 -3 205 67 205 102 0 363 56 519 111 161 57 326 152 443 255 55 49
164 175 157 181 -2 3 -46 -17 -97 -43 -169 -84 -423 -158 -643 -185 -120 -14
-345 -7 -435 16 -165 40 -285 109 -395 226 -59 63 -86 102 -132 194 -31 63
-58 115 -59 115 -1 0 -10 -21 -20 -47 -10 -27 -26 -66 -36 -88 -38 -86 -82
-237 -115 -387 -21 -100 -27 -138 -49 -338 -7 -65 -7 -377 0 -440 l6 -45 -98
-65 c-78 -52 -140 -108 -304 -275 -350 -358 -548 -579 -1119 -1255 -453 -535
-667 -783 -846 -980 -164 -180 -374 -386 -472 -465 l-63 -50 58 -50 c188 -161
370 -362 424 -467 62 -122 57 -221 -16 -293 -71 -72 -157 -83 -235 -32 -103
69 -223 347 -286 662 -10 50 -21 94 -25 98 -4 5 -71 -43 -150 -105 -317 -252
-802 -619 -1201 -908 -87 -63 -158 -117 -158 -121 0 -6 796 -1514 806 -1528 2
-2 15 11 29 28 114 135 657 374 1100 485 206 52 280 59 535 52 604 -16 1319
-66 1670 -117 155 -22 170 -26 170 -42 0 -7 17 -473 36 -1037 20 -564 39
-1091 41 -1171 l5 -146 110 -12 c921 -100 1919 -124 2748 -66 1676 118 2806
546 3312 1256 124 174 230 417 277 634 69 319 98 1081 57 1525 -90 991 -378
1852 -889 2660 -226 358 -514 717 -829 1033 l-147 148 38 50 c185 244 279 562
312 1049 11 160 7 563 -5 600 -2 8 -7 49 -10 90 -4 41 -8 86 -10 100 -3 14
-10 59 -16 100 -17 109 -17 108 -33 195 -21 109 -90 384 -117 470 -64 197 -93
282 -140 405 -29 74 -60 153 -70 175 -10 22 -39 87 -65 145 -110 251 -319 628
-500 906 -174 268 -436 607 -464 602 -9 -2 -52 35 -106 91 -112 117 -206 194
-326 268 -221 137 -475 223 -707 239 -42 3 -81 6 -87 7 -5 2 -80 -1 -165 -4z
m-2646 -5735 c43 -16 38 -39 -31 -160 -136 -239 -256 -534 -323 -799 -74 -292
-95 -487 -87 -815 8 -324 44 -560 123 -800 l35 -105 38 -734 c22 -404 37 -741
34 -748 -3 -7 -16 -16 -30 -19 -55 -14 -52 -34 -94 752 l-38 729 -36 109 c-40
121 -87 345 -107 506 -18 141 -17 653 1 780 33 241 95 484 178 705 76 202 243
535 294 586 21 21 21 21 43 13z m3855 -2413 c11 -7 19 -95 37 -408 13 -219 23
-417 24 -440 0 -40 2 -42 33 -47 290 -47 372 -63 486 -92 239 -61 415 -147
470 -229 34 -51 39 -129 11 -173 -84 -134 -363 -45 -847 271 l-152 99 -1757
-512 c-1079 -314 -1766 -509 -1779 -506 -29 7 -38 41 -17 65 12 13 515 163
1707 510 930 270 1706 496 1725 501 l35 10 -25 460 c-14 254 -22 470 -18 480
8 21 42 26 67 11z"/>
<path d="M65530 10666 c0 -9 291 -182 400 -238 177 -90 324 -130 358 -96 7 7
12 25 12 42 0 89 -229 194 -580 266 -139 28 -190 35 -190 26z"/>
<path d="M44554 19675 c-238 -48 -511 -165 -704 -302 -122 -87 -317 -282 -400
-400 -103 -148 -198 -339 -246 -498 -8 -25 -15 -30 -44 -31 -144 -5 -270 -94
-304 -213 -24 -84 -21 -280 6 -404 20 -93 71 -261 86 -285 7 -10 22 -4 66 22
107 65 196 69 355 18 l85 -27 55 -130 c84 -194 123 -254 156 -241 38 14 8 337
-51 537 -3 13 7 19 43 28 108 26 234 66 326 103 l99 40 14 -21 c22 -31 51 -26
97 15 39 36 134 85 192 98 16 4 36 12 42 18 19 16 16 66 -4 78 -16 10 -8 21
64 96 46 47 112 129 147 182 64 96 148 260 161 315 7 26 10 27 65 27 128 0
321 -54 475 -133 213 -109 358 -364 423 -739 9 -54 19 -98 22 -98 6 0 75 156
140 315 52 127 139 386 140 415 0 3 6 28 14 55 15 51 17 60 36 180 28 175 9
368 -45 461 -32 55 -131 145 -189 172 -152 72 -363 51 -553 -53 -35 -19 -65
-35 -67 -35 -2 0 -6 32 -10 70 -14 159 -112 301 -241 349 -129 48 -267 53
-451 16z"/>
<path d="M31219 19606 c-2 -2 -33 -7 -69 -10 -36 -4 -74 -9 -85 -11 -11 -3
-36 -7 -55 -10 -42 -6 -76 -12 -98 -19 -9 -3 -28 -7 -42 -10 -14 -2 -70 -18
-125 -35 -645 -202 -1129 -744 -1349 -1513 -33 -114 -87 -347 -101 -428 -3
-19 -8 -48 -12 -65 -8 -35 -9 -44 -18 -110 -3 -27 -12 -93 -20 -145 -8 -52
-16 -113 -19 -135 -9 -64 -35 -352 -41 -450 -3 -49 -8 -103 -11 -119 -2 -16
-7 -102 -10 -190 -3 -89 -9 -217 -13 -286 -4 -69 -5 -390 -3 -715 6 -701 6
-735 10 -735 1 0 35 24 76 54 357 264 912 540 1505 747 l93 32 -6 71 c-3 39
-8 251 -11 471 -3 220 -8 417 -11 438 l-6 38 -41 -8 c-23 -4 -94 -8 -157 -8
-94 0 -128 5 -189 24 -262 86 -465 366 -478 661 -6 132 12 226 66 336 123 248
365 319 665 194 42 -18 76 -35 76 -40 0 -15 149 -21 246 -10 373 45 656 245
905 642 l46 73 133 54 c140 58 163 78 141 118 -17 32 -44 33 -117 3 -38 -15
-70 -27 -71 -26 -2 2 10 27 27 57 105 195 202 465 218 612 l7 58 198 -332
c109 -182 196 -333 195 -335 -2 -1 -32 4 -66 13 -79 20 -112 9 -112 -36 0 -39
11 -46 106 -68 82 -20 124 -16 124 9 1 15 8 116 18 238 11 136 -9 332 -46 460
-34 118 -137 281 -220 350 -20 17 -64 44 -96 60 -77 39 -151 40 -295 4 -91
-23 -111 -25 -155 -16 -59 13 -167 32 -211 38 -44 6 -490 15 -496 10z"/>
<path d="M8043 18299 c-40 -16 -55 -27 -59 -46 -14 -55 29 -76 97 -49 68 27
138 21 215 -19 63 -33 69 -34 91 -20 38 25 30 60 -23 98 -64 45 -98 55 -189
56 -57 0 -95 -6 -132 -20z"/>
<path d="M32727 18189 c-90 -72 -86 -56 -62 -293 15 -147 19 -156 67 -156 45
0 48 21 32 185 -10 95 -12 150 -6 154 24 15 110 101 116 116 10 27 -12 55 -42
55 -18 0 -53 -20 -105 -61z"/>
<path d="M31938 18109 c-113 -92 -105 -67 -83 -284 16 -161 19 -171 48 -179
22 -5 67 17 67 33 0 15 -20 214 -25 258 l-6 41 86 67 c83 65 86 69 83 104 -3
33 -5 36 -38 38 -30 2 -48 -8 -132 -78z"/>
<path d="M45108 18150 c-21 -13 -24 -63 -5 -78 6 -5 57 -12 112 -14 73 -4 113
-11 149 -26 76 -34 116 -26 116 23 0 55 -103 96 -250 102 -65 2 -112 0 -122
-7z"/>
<path d="M8157 18053 c-14 -13 -6 -66 28 -195 47 -174 48 -178 83 -178 34 0
52 16 52 48 0 28 -67 288 -81 315 -10 17 -68 25 -82 10z"/>
<path d="M19385 18017 c-56 -27 -110 -69 -126 -99 -8 -15 -6 -25 6 -44 21 -32
49 -30 95 6 50 40 100 60 148 60 29 0 48 -8 79 -35 53 -45 90 -46 106 -2 10
26 -20 72 -67 105 -33 23 -52 27 -115 30 -63 2 -84 -1 -126 -21z"/>
<path d="M7372 17988 c-19 -19 -15 -53 24 -203 41 -157 58 -185 101 -169 20 6
29 17 31 36 4 32 -64 294 -84 326 -16 24 -53 29 -72 10z"/>
<path d="M62500 17981 c-15 -30 -14 -32 45 -120 l56 -81 -28 -139 c-22 -116
-25 -142 -14 -155 16 -19 64 -21 79 -3 5 6 24 82 41 167 l31 155 -47 70 c-74
108 -91 125 -124 125 -18 0 -32 -7 -39 -19z"/>
<path d="M20135 17943 c-31 -8 -45 -23 -45 -49 0 -44 23 -54 109 -47 98 7 137
-5 190 -62 43 -46 76 -56 99 -33 42 42 -29 142 -124 178 -53 19 -174 26 -229
13z"/>
<path d="M63302 17918 c-23 -23 -12 -55 42 -130 l54 -75 -24 -119 c-14 -66
-23 -135 -22 -154 3 -33 6 -35 40 -38 32 -3 39 1 48 20 11 28 60 272 60 303 0
12 -28 61 -63 111 -52 74 -68 89 -92 92 -17 2 -36 -3 -43 -10z"/>
<path d="M32419 17877 c-9 -20 -3 -39 39 -123 101 -199 124 -353 70 -464 -15
-30 -37 -67 -49 -82 -19 -23 -21 -31 -11 -52 16 -35 49 -42 81 -19 14 11 44
55 66 98 l40 78 -1 116 c0 103 -4 127 -32 208 -35 104 -72 182 -109 231 -30
40 -78 45 -94 9z"/>
<path d="M7826 17804 c-23 -23 -20 -47 14 -101 61 -95 111 -260 125 -408 7
-78 -7 -220 -31 -306 -20 -72 -9 -99 40 -99 39 0 48 15 71 125 48 229 20 465
-81 673 -62 128 -97 158 -138 116z"/>
<path d="M45246 17789 c-17 -10 -18 -21 -11 -163 7 -163 17 -196 59 -196 45 0
50 18 42 182 -5 119 -10 156 -23 170 -18 20 -39 22 -67 7z"/>
<path d="M44221 17721 c-13 -23 5 -309 21 -328 14 -17 63 -17 77 1 15 18 -2
311 -20 332 -17 21 -66 18 -78 -5z"/>
<path d="M19282 17708 c-25 -25 -12 -62 41 -122 l53 -58 -13 -136 c-12 -124
-12 -137 3 -153 20 -22 57 -25 73 -6 8 11 41 265 41 324 0 7 -30 46 -67 87
-69 77 -102 93 -131 64z"/>
<path d="M20046 17704 c-34 -33 -12 -66 118 -176 l28 -24 -10 -134 c-5 -74 -8
-140 -5 -147 7 -18 53 -28 72 -16 23 14 29 51 37 207 l6 141 -93 82 c-96 84
-124 97 -153 67z"/>
<path d="M44729 17554 c-10 -12 -10 -24 -1 -57 58 -201 66 -256 64 -452 -1
-104 -3 -214 -4 -244 -3 -61 11 -78 55 -67 21 5 27 15 37 58 18 81 24 321 11
434 -13 113 -55 288 -77 322 -17 26 -65 30 -85 6z"/>
<path d="M62863 17557 c-37 -21 -122 -135 -162 -220 -65 -137 -83 -255 -57
-377 17 -80 40 -112 76 -103 38 10 44 29 30 91 -39 166 9 334 141 493 54 64
60 90 27 113 -26 19 -27 19 -55 3z"/>
<path d="M46052 17513 c-10 -16 -69 -114 -130 -220 -112 -191 -112 -192 -112
-257 0 -36 4 -66 9 -66 26 0 45 19 81 81 l41 68 122 3 122 3 3 34 c2 18 -1 38
-8 45 -6 6 -48 13 -94 16 l-84 5 73 125 c41 69 74 134 75 146 1 50 -66 62 -98
17z"/>
<path d="M30200 17450 c-6 -12 -8 -30 -5 -40 4 -11 69 -74 146 -141 77 -67
137 -124 134 -127 -3 -3 -74 -38 -158 -77 -138 -64 -152 -73 -155 -98 -4 -34
13 -57 43 -57 12 0 100 36 195 80 l172 80 80 -70 c83 -72 113 -83 142 -54 36
35 27 45 -262 295 -211 183 -270 229 -293 229 -18 0 -32 -7 -39 -20z"/>
<path d="M5620 17380 c-42 -42 -31 -54 165 -195 83 -59 154 -111 158 -115 5
-4 -52 -22 -125 -40 -150 -37 -178 -53 -162 -97 6 -19 17 -29 35 -31 14 -2 98
15 187 37 89 23 168 41 177 41 8 0 43 -20 77 -45 78 -56 116 -59 132 -9 4 14
0 29 -11 42 -25 30 -583 432 -599 432 -8 0 -23 -9 -34 -20z"/>
<path d="M43012 17388 c-7 -7 -12 -24 -12 -39 0 -23 20 -44 108 -120 59 -51
113 -98 120 -104 11 -10 -8 -28 -92 -91 -97 -72 -106 -81 -106 -111 0 -27 5
-35 26 -43 31 -12 23 -16 157 83 119 88 102 87 186 15 63 -54 111 -48 111 14
0 24 -32 55 -222 218 -217 187 -248 206 -276 178z"/>
<path d="M19647 17318 c-25 -19 -95 -177 -118 -265 -29 -113 -35 -241 -15
-333 19 -90 42 -119 83 -104 25 8 28 15 27 49 0 22 -7 67 -13 100 -24 110 6
267 80 424 44 94 45 103 23 125 -19 19 -44 20 -67 4z"/>
<path d="M64884 17174 c-28 -11 -464 -475 -464 -493 0 -26 26 -51 53 -51 14 0
53 31 107 84 l85 85 145 -34 c131 -31 147 -33 167 -19 30 19 30 59 1 77 -13 8
-71 25 -131 38 l-107 23 105 106 c103 105 119 133 97 166 -9 14 -43 24 -58 18z"/>
<path d="M21481 16910 c-107 -126 -199 -236 -203 -245 -21 -36 23 -81 64 -66
9 3 44 39 78 79 70 83 62 80 240 61 78 -8 104 -8 115 1 18 15 20 64 2 78 -6 6
-54 15 -106 21 -51 6 -95 12 -97 13 -1 2 37 51 86 108 90 105 106 140 78 168
-7 7 -23 12 -38 12 -21 0 -60 -41 -219 -230z"/>
<path d="M31811 16924 c-22 -16 -23 -22 -18 -79 19 -196 149 -324 320 -313 82
5 148 38 220 109 59 60 74 102 43 128 -9 8 -525 171 -541 171 0 0 -11 -7 -24
-16z m252 -160 c84 -25 160 -48 170 -50 17 -5 17 -7 2 -24 -24 -27 -99 -60
-135 -60 -72 0 -149 55 -181 128 -21 48 -22 52 -13 52 3 0 74 -21 157 -46z"/>
<path d="M63013 16695 c-166 -51 -307 -96 -314 -100 -16 -10 -6 -103 16 -146
49 -96 110 -139 200 -139 117 0 248 104 418 331 57 75 69 113 45 137 -7 7 -23
12 -37 11 -15 0 -162 -42 -328 -94z m151 -101 c-95 -111 -197 -184 -256 -184
-14 0 -37 9 -52 21 -29 23 -61 77 -51 87 5 5 291 98 403 131 2 1 -18 -24 -44
-55z"/>
<path d="M7386 16754 c-17 -16 -20 -42 -8 -60 4 -7 76 -53 160 -104 156 -94
192 -105 215 -69 24 39 1 62 -157 157 -85 50 -163 92 -174 92 -11 0 -28 -7
-36 -16z"/>
<path d="M20080 16491 c-263 -104 -296 -119 -304 -143 -12 -34 0 -49 76 -99
112 -72 236 -86 337 -37 102 49 229 218 247 329 7 39 -14 70 -44 68 -9 -1
-150 -53 -312 -118z m210 -40 c0 -6 -25 -37 -55 -69 -85 -92 -149 -115 -239
-87 -31 10 -56 20 -56 24 0 5 323 137 343 140 4 1 7 -3 7 -8z"/>
<path d="M44302 16568 c-21 -21 -13 -53 26 -114 46 -70 94 -114 165 -151 41
-21 69 -27 137 -30 98 -4 133 8 138 48 5 45 -20 59 -93 52 -111 -10 -198 40
-272 155 -27 42 -39 52 -61 52 -16 0 -33 -5 -40 -12z"/>
<path d="M31124 16185 c132 -209 393 -394 695 -496 150 -50 268 -76 441 -98
l135 -17 3 -36 c4 -45 11 -51 93 -71 36 -9 130 -39 210 -66 79 -28 145 -48
147 -46 3 2 -1 48 -7 102 -7 54 -14 118 -17 143 -3 25 -7 56 -9 70 -2 14 -16
120 -30 235 -14 116 -28 225 -31 243 l-5 33 -72 -66 c-79 -74 -206 -142 -315
-170 -153 -39 -377 -37 -585 5 -198 40 -454 137 -625 237 l-47 28 19 -30z"/>
<path d="M6616 16061 c70 -119 234 -280 374 -367 l60 -37 -40 -18 c-107 -48
-262 -270 -370 -531 -31 -74 -32 -79 -16 -103 18 -27 43 -32 68 -12 9 6 33 50
53 97 98 227 237 429 315 458 14 5 35 6 47 1 29 -10 81 -88 105 -157 29 -81
21 -238 -16 -338 -14 -39 -26 -80 -26 -91 0 -28 25 -46 53 -41 45 9 586 318
592 339 8 25 -19 69 -43 69 -14 0 -253 -129 -419 -225 l-41 -25 10 38 c6 20
11 80 12 132 0 104 -18 184 -60 259 -13 24 -23 45 -21 47 1 1 41 -11 87 -27
166 -59 536 -136 557 -116 8 8 -30 353 -40 363 -2 3 -50 -1 -107 -7 -183 -21
-439 17 -688 102 -114 39 -333 141 -421 196 l-45 27 20 -33z"/>
<path d="M20885 15844 c-72 -50 -249 -138 -357 -180 -212 -81 -481 -132 -646
-121 l-84 5 6 -72 c3 -39 9 -110 12 -158 4 -47 10 -92 14 -98 9 -15 205 29
358 81 234 80 412 183 561 325 83 79 196 224 189 243 -2 5 -25 -7 -53 -25z"/>
<path d="M45385 15824 c-231 -208 -521 -303 -810 -265 -201 26 -411 106 -540
204 -33 25 -62 44 -64 41 -2 -2 20 -43 50 -91 65 -105 235 -281 321 -332 228
-133 503 -144 707 -28 116 65 256 227 336 386 24 49 57 132 52 131 -1 -1 -24
-21 -52 -46z"/>
<path d="M50532 15823 c-130 -63 -470 -546 -895 -1274 -146 -249 -146 -249
-121 -249 11 0 62 -11 115 -23 l96 -24 166 266 c521 836 755 1287 684 1314 -8
3 -28 -2 -45 -10z"/>
<path d="M41474 15125 c-15 -22 -15 -27 -1 -48 8 -13 108 -104 222 -201 l207
-179 48 23 c27 13 47 27 44 32 -3 5 -107 96 -232 203 -150 130 -234 195 -249
195 -13 0 -29 -10 -39 -25z"/>
<path d="M41032 15118 c-5 -7 -10 -60 -9 -118 1 -110 -15 -185 -55 -265 -75
-149 -231 -265 -440 -329 l-86 -27 25 -44 c13 -25 28 -45 33 -45 25 0 178 59
255 98 129 66 247 183 303 302 22 47 46 110 53 140 17 70 17 247 1 278 -14 25
-62 31 -80 10z"/>
<path d="M19637 14930 c-233 -31 -558 -105 -821 -186 -14 -5 21 -27 130 -83
311 -161 422 -239 473 -333 28 -52 83 -200 121 -322 15 -49 29 -85 33 -80 3 5
15 48 27 94 12 47 71 270 131 496 60 227 109 417 109 423 0 14 -37 13 -203 -9z"/>
<path d="M8199 14772 c-69 -42 -133 -83 -143 -91 -24 -20 -21 -68 5 -82 27
-14 38 -9 197 88 129 79 153 104 133 142 -20 37 -58 26 -192 -57z"/>
<path d="M17560 14739 c-27 -50 -27 -50 556 -354 614 -320 629 -326 629 -251
l0 40 -560 293 c-323 168 -571 292 -587 293 -18 0 -31 -7 -38 -21z"/>
<path d="M17290 14298 c-23 -25 -25 -38 -7 -60 22 -27 1103 -698 1125 -698 12
0 29 11 38 26 16 24 16 27 -2 50 -21 26 -1098 704 -1120 704 -7 0 -22 -10 -34
-22z"/>
<path d="M48862 13808 c-13 -13 -16 -47 -4 -64 4 -7 25 -17 47 -23 62 -18
1074 -172 1103 -169 19 2 30 11 36 31 20 57 20 57 -584 151 -305 47 -562 86
-570 86 -9 0 -21 -5 -28 -12z"/>
<path d="M26068 13489 c-29 -16 -97 -125 -151 -237 -132 -281 -337 -869 -521
-1493 -26 -86 -80 -250 -121 -364 -41 -114 -75 -211 -75 -216 0 -6 48 -8 112
-7 l111 3 89 245 c114 316 381 1112 453 1350 112 368 174 646 159 706 -7 25
-27 30 -56 13z"/>
<path d="M8121 13246 c-84 -107 -151 -203 -151 -215 0 -11 11 -28 24 -36 23
-16 30 -14 123 24 324 131 338 138 347 164 8 21 6 31 -9 47 -10 11 -24 20 -31
20 -12 0 -99 -33 -197 -75 -46 -19 -47 -21 50 103 40 52 73 104 73 116 0 30
-18 46 -51 46 -24 0 -48 -26 -178 -194z"/>
<path d="M48626 13128 c-9 -12 -16 -27 -16 -33 0 -39 18 -43 575 -130 303 -47
566 -85 585 -83 33 3 35 6 38 40 3 32 -1 39 -20 47 -19 8 -1107 181 -1137 181
-6 0 -17 -10 -25 -22z"/>
<path d="M3258 11748 c-263 -267 -397 -410 -398 -424 0 -25 29 -54 56 -54 12
0 166 150 412 399 346 353 392 403 392 430 0 25 -6 34 -26 41 -14 6 -28 10
-32 10 -4 0 -186 -181 -404 -402z"/>
<path d="M59166 11673 c60 -276 156 -511 236 -578 34 -28 57 -31 96 -11 97 50
86 157 -34 316 -50 67 -280 300 -296 300 -4 0 -6 -12 -2 -27z"/>
<path d="M43633 11545 c-212 -20 -338 -36 -348 -45 -17 -14 -20 -47 -5 -70 11
-18 18 -18 445 21 366 33 395 39 395 82 0 57 -21 58 -487 12z"/>
<path d="M44019 11031 c-313 -17 -329 -20 -329 -67 0 -52 13 -53 410 -32 201
10 375 23 388 28 25 11 31 57 10 78 -15 15 -97 14 -479 -7z"/>
<path d="M35682 9448 c-27 -27 -13 -63 49 -123 175 -172 259 -343 259 -529 0
-98 7 -116 46 -116 44 0 54 24 54 129 0 112 -17 186 -65 288 -47 101 -106 184
-198 280 -81 85 -115 101 -145 71z"/>
<path d="M59760 9176 c-167 -100 -226 -139 -228 -155 -2 -11 -6 -21 -10 -21
-4 0 -86 -7 -183 -14 -405 -33 -757 -30 -885 9 -27 8 -49 13 -50 12 -1 -1 74
-144 166 -317 l168 -315 51 -8 50 -8 92 96 c168 175 595 533 613 515 6 -6 20
-10 33 -10 33 0 473 260 485 286 7 15 6 28 -1 43 -23 43 -63 28 -301 -113z"/>
<path d="M35402 9038 c-20 -20 -14 -38 47 -160 93 -185 123 -359 85 -487 -8
-30 -13 -64 -10 -77 8 -30 41 -40 71 -20 38 25 50 85 49 236 -1 119 -4 145
-29 220 -28 86 -91 222 -127 273 -21 29 -64 37 -86 15z"/>
<path d="M59894 8657 c-434 -300 -509 -356 -512 -379 -3 -25 27 -58 53 -58 6
0 240 159 520 353 444 308 510 357 513 381 4 34 -13 56 -43 56 -13 0 -231
-144 -531 -353z"/>
<path d="M55778 7858 c-3 -225 -4 -234 -26 -265 l-23 -33 2076 0 c1822 0 2080
2 2105 15 57 29 60 42 60 248 0 210 -7 237 -63 257 -20 7 -701 10 -2078 10
l-2048 0 -3 -232z"/>
</g>
</svg>
